<svg xmlns="http://www.w3.org/2000/svg" viewBox="0 0 16 16" id="Image--Streamline-Font-Awesome" height="16" width="16">
  <desc>
    Image Streamline Icon: https://streamlinehq.com
  </desc>
<!--! Font Awesome Free 6.5.2 by @fontawesome - https://fontawesome.com License - https://fontawesome.com/license/free (Icons: CC BY 4.0, Fonts: SIL OFL 1.1, Code: MIT License) Copyright 2024 Fonticons, Inc.-->
  <path d="M0 3c0 -1.103125 0.896875 -2 2 -2h12c1.103125 0 2 0.896875 2 2v10c0 1.103125 -0.896875 2 -2 2H2c-1.103125 0 -2 -0.896875 -2 -2V3zm10.11875 3.328125c-0.140625 -0.20625 -0.371875 -0.328125 -0.61875 -0.328125s-0.48125 0.121875 -0.61875 0.328125l-2.71875 3.9875 -0.828125 -1.034375c-0.14375 -0.178125 -0.359375 -0.28125 -0.584375 -0.28125s-0.44375 0.103125 -0.584375 0.28125l-2 2.5c-0.18125 0.225 -0.215625 0.534375 -0.090625 0.79375S2.4625 13 2.75 13h10.5c0.278125 0 0.534375 -0.153125 0.6625 -0.4s0.1125 -0.54375 -0.04375 -0.771875l-3.75 -5.5zM3.5 6a1.5 1.5 0 1 0 0 -3 1.5 1.5 0 1 0 0 3z" fill="#000000" stroke-width="0.0313"></path>
</svg>