<svg xmlns="http://www.w3.org/2000/svg" fill="none" viewBox="0 0 24 24" height="24" width="24">
  <g id="Info">
    <path id="Union" fill="#000000" d="M12 2c5.5228 0 10 4.47715 10 10 0 5.5228 -4.4772 10 -10 10 -5.52285 0 -10 -4.4772 -10 -10C2 6.47715 6.47715 2 12 2m0 2c-4.41828 0 -8 3.58172 -8 8 0 4.4183 3.58172 8 8 8 4.4183 0 8 -3.5817 8 -8 0 -4.41828 -3.5817 -8 -8 -8m0 7c0.5523 0 1 0.4477 1 1v3h1.5v2h-5v-2H11v-2H9.5v-2zm-0.25 -4c0.6904 0 1.25 0.55964 1.25 1.25s-0.5596 1.25 -1.25 1.25 -1.25 -0.55964 -1.25 -1.25S11.0596 7 11.75 7" stroke-width="1"></path>
  </g>
</svg>