<svg xmlns="http://www.w3.org/2000/svg" viewBox="0 0 16 16" id="Square-Plus--Streamline-Font-Awesome" height="16" width="16">
  <desc>
    Square Plus Streamline Icon: https://streamlinehq.com
  </desc>
<!--! Font Awesome Free 6.5.2 by @fontawesome - https://fontawesome.com License - https://fontawesome.com/license/free (Icons: CC BY 4.0, Fonts: SIL OFL 1.1, Code: MIT License) Copyright 2024 Fonticons, Inc.-->
  <path d="M2.4 0.16C1.1645 0.16 0.16 1.1645 0.16 2.4v11.200000000000001c0 1.2355 1.0045 2.2399999999999998 2.2399999999999998 2.2399999999999998h11.200000000000001c1.2355 0 2.2399999999999998 -1.0045 2.2399999999999998 -2.2399999999999998V2.4c0 -1.2355 -1.0045 -2.2399999999999998 -2.2399999999999998 -2.2399999999999998H2.4Zm4.76 10.92v-2.2399999999999998h-2.2399999999999998c-0.4655 0 -0.84 -0.3745 -0.84 -0.84s0.3745 -0.84 0.84 -0.84h2.2399999999999998v-2.2399999999999998c0 -0.4655 0.3745 -0.84 0.84 -0.84s0.84 0.3745 0.84 0.84v2.2399999999999998h2.2399999999999998c0.4655 0 0.84 0.3745 0.84 0.84s-0.3745 0.84 -0.84 0.84h-2.2399999999999998v2.2399999999999998c0 0.4655 -0.3745 0.84 -0.84 0.84s-0.84 -0.3745 -0.84 -0.84Z" fill="#000000" stroke-width="0.0357"></path>
</svg>