<svg xmlns="http://www.w3.org/2000/svg" viewBox="0 0 16 16" id="File-Import--Streamline-Font-Awesome" height="16" width="16">
  <desc>
    File Import Streamline Icon: https://streamlinehq.com
  </desc>
<!--! Font Awesome Free 6.5.2 by @fontawesome - https://fontawesome.com License - https://fontawesome.com/license/free (Icons: CC BY 4.0, Fonts: SIL OFL 1.1, Code: MIT License) Copyright 2024 Fonticons, Inc.-->
  <path d="M4 2c0 -1.103125 0.896875 -2 2 -2h5v4c0 0.553125 0.446875 1 1 1h4v9c0 1.103125 -0.896875 2 -2 2H6c-1.103125 0 -2 -0.896875 -2 -2V10.5h5.440625l-1.21875 1.21875c-0.29375 0.29375 -0.29375 0.76875 0 1.059375s0.76875 0.29375 1.059375 0l2.5 -2.5c0.29375 -0.29375 0.29375 -0.76875 0 -1.059375l-2.5 -2.5c-0.29375 -0.29375 -0.76875 -0.29375 -1.059375 0s-0.29375 0.76875 0 1.059375l1.21875 1.21875H4V2zm0 7v1.5H0.75c-0.415625 0 -0.75 -0.334375 -0.75 -0.75s0.334375 -0.75 0.75 -0.75h3.25zm12 -5H12V0l4 4z" fill="#000000" stroke-width="0.0313"></path>
</svg>